<svg width="32" height="31" viewBox="0 0 32 31" fill="none" xmlns="http://www.w3.org/2000/svg">
<path fill-rule="evenodd" clip-rule="evenodd" d="M15.208 0.00017647C23.6069 0.00017647 30.4157 6.81425 30.4157 15.2201C30.4157 17.6089 29.8652 19.8689 28.8853 21.8806C28.8185 22.0178 28.8148 22.1622 28.8747 22.3023L31.958 29.5184C32.1216 29.9015 31.7818 30.3066 31.3765 30.2119L23.2458 28.3104C23.1144 28.2797 22.9909 28.2984 22.8745 28.3664C20.6235 29.6843 18.0039 30.4399 15.2078 30.4399C6.80881 30.4399 0 23.6258 0 15.2199C0 6.81407 6.80863 0 15.2078 0" fill="#FED944"/>
<path d="M27.5914 22.8453L29.0987 26.3704C29.1834 26.5686 29.2097 26.7771 29.1799 26.9788C29.1498 27.1826 29.064 27.3753 28.9257 27.5403C28.7881 27.7042 28.6122 27.8218 28.4147 27.8877C28.2187 27.953 28.0087 27.9641 27.8014 27.9157L23.5739 26.9278C23.334 26.8718 23.0905 26.8625 22.8536 26.8982C22.6146 26.9343 22.385 27.0146 22.1752 27.1371C21.115 27.7572 19.9902 28.2273 18.8267 28.5414C17.6564 28.8574 16.4453 29.0183 15.2204 29.0183C11.4096 29.0183 7.95988 27.4739 5.46287 24.977C2.96586 22.4801 1.42139 19.0304 1.42139 15.2199C1.42139 11.4094 2.96586 7.95961 5.46287 5.46271C7.95988 2.9658 11.4098 1.42139 15.2204 1.42139C19.0311 1.42139 22.481 2.96562 24.978 5.46271C27.475 7.95961 29.0195 11.4094 29.0195 15.2199C29.0195 16.2655 28.9014 17.3053 28.6675 18.3226C28.4348 19.3353 28.0884 20.3191 27.6312 21.2572C27.5076 21.5107 27.4423 21.779 27.4358 22.0456C27.4291 22.3148 27.4808 22.587 27.5912 22.8453M27.859 26.6459L26.4427 23.334C26.2626 22.9127 26.1783 22.4639 26.1894 22.0162C26.2005 21.5657 26.3066 21.1207 26.5072 20.7098C26.9253 19.8522 27.2405 18.9587 27.4507 18.0441C27.6618 17.1259 27.7684 16.1794 27.7684 15.2199C27.7684 11.7546 26.364 8.61773 24.0934 6.34724C21.8228 4.07675 18.6858 2.67248 15.2204 2.67248C11.755 2.67248 8.61803 4.07675 6.34745 6.34724C4.07686 8.61773 2.67253 11.7546 2.67253 15.2199C2.67253 18.6851 4.07686 21.822 6.34745 24.0925C8.61803 26.363 11.755 27.7673 15.2204 27.7673C16.3392 27.7673 17.4417 27.6213 18.5041 27.3343C19.5665 27.0473 20.5879 26.6216 21.5447 26.0619C21.8989 25.8547 22.279 25.7204 22.6678 25.6617C23.0585 25.6027 23.4608 25.6182 23.8573 25.7109L27.859 26.6459Z" fill="#231916"/>
<path fill-rule="evenodd" clip-rule="evenodd" d="M15.2025 6.34473C16.2843 6.34473 17.1613 7.40265 17.1613 8.30122C17.1613 11.2984 16.4593 14.4483 16.4593 18.0211C16.4593 18.7144 15.8965 19.2765 15.2025 19.2765C14.5084 19.2765 13.9457 18.7144 13.9457 18.0211C13.9457 14.4483 13.2437 11.2984 13.2437 8.30122C13.2437 7.40282 14.1207 6.34473 15.2025 6.34473Z" fill="#231916"/>
<path fill-rule="evenodd" clip-rule="evenodd" d="M15.2025 20.1777C16.2843 20.1777 17.1613 21.0547 17.1613 22.1365C17.1613 23.2183 16.2843 24.0953 15.2025 24.0953C14.1207 24.0953 13.2437 23.2183 13.2437 22.1365C13.2437 21.0547 14.1207 20.1777 15.2025 20.1777Z" fill="#231916"/>
</svg>
