<svg width="33" height="40" viewBox="0 0 33 40" fill="none" xmlns="http://www.w3.org/2000/svg">
<path fill-rule="evenodd" clip-rule="evenodd" d="M12.2977 15.7512C12.5543 15.8076 12.5275 16.0011 13.1711 15.9998C13.5447 15.9998 13.9196 15.9998 14.2931 15.9998L14.3025 14.8227C14.2958 14.6493 14.2434 14.6224 14.2205 14.4625C14.2152 14.4316 14.1574 14.3161 14.1265 14.269L13.9612 14.0876C13.9142 14.0352 13.9894 14.1172 13.9263 14.0446C13.7046 13.788 13.2625 13.7221 12.9333 13.7584C12.3541 13.8216 12.0007 14.2193 11.9187 14.8052C11.9026 14.9248 11.9685 15.2553 12.0141 15.3642C12.0961 15.5563 12.1982 15.6316 12.2977 15.7512Z" fill="#FCD743"/>
<path fill-rule="evenodd" clip-rule="evenodd" d="M21.0803 14.1427C21.0346 14.1306 21.0346 14.1091 20.9782 14.0581C20.9177 14.0043 20.9271 14.0124 20.8532 13.9654C20.7807 13.9197 20.6812 13.8337 20.5899 13.8323C20.1935 13.7652 19.8172 13.6738 19.3953 14.007C19.3469 14.046 19.312 14.0661 19.269 14.1253L19.1937 14.2328C19.0741 14.3752 19.0406 14.4155 19.0096 14.6211C18.9868 14.7743 18.9492 14.8657 18.9478 15.0363C18.9465 15.3373 18.9317 15.7082 18.9546 16.0011C19.3362 16.0199 20.2983 16.0629 20.6382 15.9191L20.6933 15.8909C20.7417 15.8641 20.7014 15.8829 20.7766 15.8452C20.8398 15.813 20.872 15.7982 20.9419 15.7404L21.1932 15.4314C21.2496 15.3279 21.3209 15.1492 21.3343 15.0108C21.3786 14.5553 21.122 14.2919 21.0817 14.1414L21.0803 14.1427Z" fill="#FCD743"/>
<path fill-rule="evenodd" clip-rule="evenodd" d="M12.4765 34.3953C12.4308 34.136 12.4725 33.3512 12.4711 33.0355C12.4684 32.5853 12.3515 32.6646 13.4641 32.6646L20.2634 32.6579C20.3709 32.6579 20.477 32.6579 20.5845 32.6565C20.8815 32.6525 20.8036 32.6243 20.8036 33.4883C20.8036 34.1803 20.9151 34.7339 20.3709 35.0873C20.2204 35.1854 20.0578 35.2284 19.8105 35.2298L14.3711 35.223C13.8162 35.223 13.0852 35.3722 12.7358 34.9059L12.713 34.8764C12.5571 34.6909 12.5289 34.6882 12.4765 34.3953ZM17.0398 39.9946H17.0075C16.7589 39.9919 16.5077 39.9919 16.2591 39.9946H16.1798C16.0427 39.9906 15.7834 39.9516 15.6638 39.9019L15.3642 39.8025C15.2163 39.746 15.0914 39.6976 15.0014 39.5525C14.8428 39.2945 14.8939 39.2126 14.9409 38.929C15.1075 38.8081 15.1371 38.624 15.4636 38.5998C15.649 38.5864 15.9339 38.7208 16.1758 38.7517C16.6662 38.8148 17.1365 38.7812 17.5746 38.5944L17.666 38.5474C17.8742 38.5447 18.6066 37.9522 18.6617 37.7492L18.6979 37.7197C18.6979 37.7197 18.71 37.7103 18.7141 37.7049C18.9197 37.506 19.2153 36.7052 19.1387 36.4028C18.7302 36.3813 18.276 36.3988 17.8621 36.3988L15.3292 36.4055C15.168 36.4055 14.183 36.3679 14.1158 36.4364C14.0473 36.5063 14.1656 36.9524 14.2032 37.0478L14.3308 37.3408C14.5539 37.7855 14.1897 38.0543 14.0916 38.1833C14.0419 38.2142 13.8417 38.2384 13.7624 38.2303C13.6119 38.2155 13.5649 38.2169 13.4561 38.1349C13.3472 38.0529 13.2559 37.9589 13.2034 37.8285L13.0368 37.3824C13.0086 37.2736 13.0167 37.3219 12.9885 37.244C12.9266 37.072 12.8742 36.5762 12.8742 36.3975C12.7654 36.3679 12.8662 36.3894 12.799 36.3666C12.4106 36.2349 12.1325 36.1086 11.8288 35.7914L11.3155 34.8656C11.298 34.7984 11.286 34.8038 11.2645 34.7299C11.2134 34.5471 11.247 28.4641 11.2483 27.8661L10.985 26.3168L10.3427 25.0121C10.1922 24.7836 10.0067 24.5821 9.83338 24.3738L9.64929 24.1843C9.36711 23.9129 9.07821 23.6536 8.82693 23.3539L8.67241 23.1886C8.67241 23.1886 8.62672 23.1389 8.62134 23.1322C8.33379 22.7963 7.87423 22.2091 7.6673 21.8207C7.65655 21.8019 7.64177 21.7723 7.62967 21.7508L7.0344 20.6396C7.01022 20.5751 7.01425 20.5872 6.98603 20.5281L6.87584 20.2647C6.85703 20.1599 6.87181 20.0134 6.90003 19.9476C6.97259 19.7836 7.0559 19.6304 7.24671 19.5686C7.40393 19.5754 7.65386 19.4504 7.90917 19.7124C8.02742 19.8334 8.27869 20.4206 8.41575 20.6745L8.8014 21.3262C8.92637 21.5049 9.02177 21.6635 9.1548 21.8248C9.23408 21.9202 9.26499 21.9524 9.34292 22.0626C9.81054 22.7331 10.8573 23.585 11.1462 24.0191L11.4848 24.5391C11.5507 24.6466 11.5937 24.695 11.6488 24.7998C11.7952 25.0833 11.978 25.3601 12.0478 25.653L12.2454 26.2846C12.3367 26.5695 12.3744 26.8584 12.4066 26.943C12.455 27.0693 12.4429 27.5168 12.4738 27.7116H14.2946C14.3402 27.4993 14.3537 24.6788 14.3147 24.398L14.398 24.3792L14.4383 24.2341C14.4424 24.2273 14.4558 24.2099 14.4598 24.2031L14.4948 24.1346C14.6305 23.878 15.0336 23.839 15.2163 24.0083L15.3037 24.0728C15.4085 24.1373 15.4717 24.2367 15.4891 24.3765C15.5362 24.7702 15.4542 26.9027 15.5012 27.6982C15.7928 27.7896 16.2739 27.7358 16.6084 27.7358C18.0207 27.7358 17.7533 27.8836 17.7533 27.0693C17.7533 25.5254 17.7869 17.3233 17.7278 17.2574C17.623 17.1956 15.6316 17.2037 15.5187 17.2601C15.4502 17.4267 15.4945 19.4195 15.4945 19.7904C15.4945 20.5818 15.5469 21.5708 15.4743 22.3381C15.4703 22.3407 15.4461 22.3555 15.4139 22.4039C15.215 22.7089 14.8724 22.7479 14.656 22.6216C14.2946 22.4106 14.3187 22.2064 14.3187 21.7361V18.0838C14.3187 17.0747 14.3886 17.2507 13.9412 17.2521C13.5515 17.2521 13.1094 17.2816 12.7573 17.2144C12.1849 17.1029 12.3421 17.1835 11.9242 16.9309L11.7683 16.8489C11.4808 16.7025 11.1623 16.3235 11.0078 16.0615L10.9688 15.9957C10.9688 15.9957 10.9621 15.9836 10.9594 15.9782C10.7807 15.6141 10.7216 15.4179 10.7149 15.0188C10.7122 14.8616 10.6934 14.5606 10.7404 14.4275C10.899 13.9828 10.8049 14.0983 11.1099 13.6052C11.2255 13.4197 11.3222 13.3351 11.4768 13.1953C11.4835 13.1886 11.513 13.1644 11.5211 13.1577C11.5426 13.1403 11.5534 13.1335 11.5654 13.1228C11.5829 13.108 11.5896 13.1026 11.6071 13.0878C11.6111 13.0838 11.6165 13.0784 11.6205 13.0758C11.8369 12.8702 12.0089 12.8137 12.244 12.7304C12.5329 12.6269 12.4711 12.674 12.5773 12.6377C13.0328 12.4778 13.6294 12.5974 14.0715 12.7533C14.312 12.8379 14.3685 12.9347 14.5284 12.9965C14.5606 13.0825 14.8065 13.2773 14.9342 13.413C14.9382 13.4171 14.9436 13.4224 14.9463 13.4265C15.0806 13.5797 15.3064 13.9761 15.3695 14.1722L15.4636 14.5633C15.4784 14.7191 15.473 14.914 15.473 15.0725C15.473 15.2969 15.4381 15.903 15.5012 16.0588C15.6799 16.1448 17.3744 16.1085 17.713 16.0951C17.838 15.9177 17.7506 15.0752 17.7735 14.6976C17.7855 14.5055 17.8675 14.4128 17.846 14.2381C17.842 14.1776 17.9065 14.0392 17.936 13.9747L18.4467 13.2303C18.8538 12.8594 19.2932 12.6243 19.8415 12.5772C20.52 12.5181 21.0683 12.6323 21.6031 13.0126C21.6353 13.0354 21.638 13.0368 21.6635 13.0569L22.0102 13.3996C22.0478 13.4466 22.0573 13.4748 22.0962 13.5272C22.3838 13.9035 22.3488 13.9572 22.4832 14.3106C22.5087 14.3778 22.5087 14.3993 22.5168 14.4853C22.5571 14.9113 22.5706 15.1263 22.4537 15.5025C22.3153 15.9446 22.2615 16.1435 21.8799 16.5318C21.6931 16.7213 21.6138 16.7992 21.3478 16.9349C20.821 17.2064 20.4663 17.2521 19.832 17.2521L18.968 17.2736C18.8605 17.0895 18.925 22.1217 18.925 22.4845C18.925 23.0905 18.8793 27.506 18.9452 27.6834C19.0043 27.7573 20.7498 27.7116 20.7874 27.7076C20.817 27.3878 20.8439 27.1876 20.8775 26.8866C20.9245 26.4606 21.0978 26.0373 21.2013 25.6638C21.2752 25.3964 21.4983 24.9946 21.6232 24.7514C21.6488 24.7017 21.6622 24.6667 21.6971 24.613L22.2413 23.8484C22.3367 23.7154 22.541 23.4843 22.7063 23.4359C23.1363 23.3096 23.2491 23.5662 23.4064 23.5756L23.4924 23.7557C23.4924 23.7557 23.4991 23.7678 23.5018 23.7732L23.5394 24.0822C23.5246 24.2152 23.5125 24.1803 23.5018 24.2045C23.4991 24.2099 23.495 24.2166 23.4924 24.222C23.4588 24.2918 23.4574 24.2972 23.4184 24.3604L23.2048 24.6264C22.8877 24.9986 22.8662 25.1115 22.6512 25.4595C22.627 25.4998 22.6324 25.4877 22.6109 25.5254C22.6028 25.5388 22.5773 25.5845 22.5732 25.5939L22.3905 26.0252C22.3771 26.0615 22.3784 26.0669 22.365 26.1059L22.0761 27.1499L22.0196 31.8127C22.0196 32.2803 22.0505 33.9022 22.0183 34.2905C22.0062 34.441 22.0156 34.6815 21.9551 34.8414L21.7079 35.4206C21.7039 35.4273 21.6918 35.4461 21.6877 35.4542L21.5157 35.6826C21.3599 35.8506 21.1932 36.032 20.9917 36.1448C20.3628 36.4942 20.4072 36.1395 20.3386 36.9323C20.3252 37.0908 20.1639 37.5665 20.0941 37.7277L19.8213 38.2545C19.8213 38.2545 19.8146 38.2666 19.8119 38.272L19.3161 38.8954C19.2972 38.9143 19.2892 38.921 19.2757 38.9358C19.2717 38.9398 19.2663 38.9452 19.2623 38.9492L18.9022 39.2556C18.9022 39.2556 18.8914 39.2636 18.8874 39.2677C18.8834 39.2717 18.8767 39.2757 18.8726 39.2797L18.7974 39.3375C18.7974 39.3375 18.7866 39.3456 18.7826 39.3496L17.8675 39.8199C17.7761 39.8629 17.8393 39.8468 17.7264 39.8656C17.5665 39.8925 17.6754 39.8696 17.5625 39.9153C17.4698 39.953 17.4362 39.9315 17.3394 39.9583L17.0358 40L17.0398 39.9946ZM20.7606 28.9384C20.8237 28.9559 20.7955 28.921 20.8049 29.0594C20.8076 29.0983 20.8022 29.179 20.8022 29.222L20.77 31.4633C20.7444 31.4754 13.0247 31.5305 12.4671 31.4727L12.4563 28.9156L20.6907 28.8968C20.8573 28.9035 20.7243 28.8914 20.7606 28.9398V28.9384ZM20.5886 13.8336C20.6799 13.835 20.7794 13.921 20.8519 13.9666C20.9258 14.0137 20.9164 14.0043 20.9769 14.0594C21.0333 14.1104 21.0333 14.1319 21.079 14.144L21.1408 14.1816C21.1959 14.2246 21.1583 14.1924 21.1838 14.2246C21.591 14.7379 21.3666 15.7135 20.6732 15.9769C20.5939 16.0064 20.6571 15.993 20.5818 16.0185C20.2674 16.126 19.2569 16.1085 18.9465 16.087C18.8525 15.86 18.9008 15.3749 18.8995 15.0927C18.8995 14.7097 18.925 14.4826 19.0876 14.2421C19.4047 13.7731 19.8885 13.6777 20.4246 13.7315C20.5603 13.7449 20.5415 13.7396 20.5872 13.835L20.5886 13.8336ZM14.2206 14.4638C14.2865 14.5095 14.3053 14.5176 14.3241 14.6022L14.3483 15.2244C14.3483 15.8277 14.4289 16.0454 14.1871 16.0588H13.1712C12.9078 16.0575 12.502 16.0064 12.326 15.7941C12.322 15.7901 12.3152 15.7847 12.3126 15.774C12.3099 15.7619 12.3032 15.7592 12.2991 15.7525C12.1997 15.6342 12.0976 15.559 12.0156 15.3655C11.9699 15.2566 11.9027 14.9261 11.9202 14.8065C12.0022 14.222 12.3556 13.8229 12.9347 13.7597C13.2639 13.7234 13.706 13.7893 13.9277 14.0459C13.9895 14.1185 13.9156 14.0365 13.9627 14.0889L14.1279 14.2703C14.1588 14.3174 14.2166 14.4316 14.222 14.4638H14.2206Z" fill="#010100"/>
<path fill-rule="evenodd" clip-rule="evenodd" d="M6.93225 18.4574C7.10693 18.3808 7.22249 18.3432 7.33536 18.186C7.57052 17.8595 7.38508 17.4805 7.37165 17.3287C7.31386 16.72 7.33402 15.5926 7.42674 15.0242C7.44421 14.9154 7.43614 14.8011 7.45361 14.6963C7.46974 14.5982 7.50199 14.566 7.52483 14.4303C7.58798 14.0487 7.85136 13.2142 8.00588 12.8621C8.03276 12.8003 8.04216 12.7963 8.0556 12.756C8.12413 12.5517 8.04351 12.6848 8.20341 12.3623L8.68447 11.4579C8.84034 11.2456 9.05533 10.8775 9.24883 10.6329L10.7807 9.07418L12.3488 8.05429C12.5436 7.94679 12.9441 7.72642 13.1524 7.66192L13.7664 7.42812C14.0325 7.36362 14.2314 7.28971 14.4759 7.25074C14.9126 7.18087 15.4407 7.03441 15.9701 7.01828C16.2335 7.01022 17.1499 6.96319 17.3313 7.0344C17.9266 7.01425 19.1561 7.31659 19.707 7.5383C19.8132 7.5813 19.9046 7.61892 20.0161 7.65386C20.137 7.69148 20.2083 7.72373 20.3023 7.77076L20.7189 7.96695C20.817 8.00592 20.7807 7.98979 20.8653 8.03682L21.8973 8.65897C22.1916 8.86321 22.3502 9.01909 22.6028 9.20452C22.7237 9.29321 23.3418 9.87638 23.448 10.0134C23.5098 10.0927 23.5797 10.1492 23.6442 10.2163C23.7167 10.2929 23.7745 10.3668 23.843 10.4434L24.1937 10.9191C24.3792 11.1637 24.6829 11.6501 24.832 11.9336C24.957 12.1728 24.9409 12.1016 25.0457 12.3582C25.1196 12.5396 25.1384 12.5316 25.2284 12.795L25.5657 13.7006C25.5939 13.8216 25.6288 13.8793 25.6463 14.0231C25.6571 14.1172 25.7753 14.4975 25.7901 14.7165C25.8008 14.8629 25.8129 14.9772 25.8385 15.0914C26.0158 15.856 25.907 17.3435 25.7417 18.1752C25.7175 18.2975 25.7256 18.405 25.6812 18.5152C25.645 18.6066 25.606 18.7154 25.5764 18.8337C25.5442 18.964 25.52 19.0258 25.4904 19.1521L25.387 19.4746C25.3601 19.5485 25.3682 19.5015 25.3386 19.6197C25.3037 19.7541 25.2365 19.8226 25.1451 20.0564C25.1411 20.0672 25.1276 20.0968 25.1209 20.1156C25.0322 20.3467 24.8468 20.645 24.7232 20.856C24.6882 20.9164 24.6708 20.9339 24.6412 20.985L24.4141 21.3746C24.2757 21.6017 23.9882 21.9068 23.9478 22.1634C23.8968 22.4872 24.1131 22.5813 24.1763 22.7708L24.3389 22.8299C24.3778 22.8433 24.4585 22.8702 24.5082 22.8756C24.6318 22.8877 24.7447 22.8474 24.8441 22.7909L24.8925 22.7587C24.8925 22.7587 24.9032 22.7506 24.9086 22.7479C24.9126 22.7452 24.9194 22.7399 24.9247 22.7372L25.4421 22.0546C25.4421 22.0546 25.4501 22.0438 25.4542 22.0398C25.4568 22.0358 25.4622 22.029 25.4663 22.025L26.0494 21.0078C26.0817 20.9406 26.0871 20.9366 26.1207 20.8667C26.1368 20.8331 26.1448 20.817 26.1556 20.7955C26.1838 20.7417 26.1596 20.8009 26.1919 20.7243C26.208 20.6853 26.204 20.684 26.2201 20.6463L26.2859 20.4985C26.2859 20.4985 26.29 20.4851 26.2926 20.4784L26.8154 19.0016L26.9779 18.3109C26.9914 18.2424 26.982 18.1833 26.9914 18.1121C27.0089 17.9831 27.0626 17.924 27.0653 17.76C27.068 17.58 27.072 17.5316 27.1029 17.3703C27.1647 17.0344 27.1903 15.7216 27.119 15.3064C27.076 15.0618 27.0089 14.3564 26.9524 14.1938C26.8812 13.9895 26.8113 13.5757 26.7401 13.3405C26.7186 13.272 26.7132 13.2693 26.6904 13.1766L26.4673 12.5464C26.4673 12.5464 26.462 12.5329 26.4606 12.5276L26.0736 11.6353C25.8922 11.2645 25.6812 10.9151 25.4582 10.5711C25.4555 10.5657 25.4515 10.5603 25.4474 10.555C25.4085 10.4945 25.3991 10.4811 25.3601 10.4287L25.2754 10.2997C25.1639 10.1075 25.0094 9.91938 24.8656 9.74873L24.3711 9.1763C24.3711 9.1763 24.3617 9.1669 24.3577 9.16287L23.843 8.63747C23.4157 8.24107 22.9616 7.87961 22.4845 7.54368L22.3596 7.45633C22.3072 7.42408 22.2816 7.40662 22.2292 7.37302L21.4203 6.90138C21.3692 6.8745 21.3262 6.85569 21.2779 6.8315C21.2174 6.80059 21.2053 6.79522 21.1327 6.76297L19.3993 6.12336C19.2905 6.0817 19.3577 6.09917 19.2287 6.08036C19.0594 6.05483 18.7127 5.92986 18.534 5.9218C18.3136 5.91239 18.3485 5.89492 18.1725 5.85595C18.0381 5.82639 17.9065 5.85461 17.7667 5.83446C17.6659 5.82102 17.5383 5.79549 17.3985 5.77533C17.0666 5.72696 16.0642 5.73771 15.7605 5.8143C15.6087 5.85192 15.5361 5.83311 15.3601 5.83983C15.2069 5.84655 15.1303 5.90299 15.0107 5.91777C14.9409 5.92583 14.8777 5.91508 14.8065 5.92718C14.6775 5.94733 14.6063 5.98764 14.4544 6.00242C14.3442 6.01317 14.3711 6.02123 14.2891 6.0508C14.1964 6.08439 14.2126 6.06692 14.1104 6.08439L13.1309 6.38538C13.0435 6.41494 13.0368 6.4257 12.979 6.44585L12.2238 6.7576C12.1929 6.77238 12.1795 6.77506 12.1486 6.7885L11.5157 7.11503C11.4566 7.14997 11.4378 7.15399 11.3746 7.18759L11.2913 7.23865C11.2913 7.23865 11.2792 7.24537 11.2738 7.24806L11.075 7.36899C11.0682 7.37302 11.0467 7.38377 11.04 7.3878L10.9124 7.4738C10.8935 7.48724 10.864 7.50471 10.8465 7.51546C10.7995 7.54367 10.7578 7.57189 10.7162 7.59877L9.48801 8.55684C9.48801 8.55684 9.46517 8.577 9.4598 8.58237C9.43695 8.60387 9.42755 8.61059 9.4047 8.63344L9.17358 8.85515C9.15343 8.87531 9.13999 8.88874 9.11983 8.9089L8.32972 9.79845C8.32972 9.79845 8.32166 9.8092 8.31763 9.81323L7.53289 10.9487C7.51274 10.9823 7.50871 10.9876 7.49258 11.0159L6.78847 12.498C6.78847 12.498 6.78444 12.5114 6.78175 12.5181L6.27248 14.3026C6.24426 14.4303 6.25232 14.5579 6.22679 14.6829C6.1717 14.9409 6.18245 15.2177 6.13407 15.4434C6.04808 15.8439 6.0857 17.7775 6.32488 18.1806L6.47807 18.3472C6.68231 18.4924 6.67963 18.4359 6.9309 18.4614L6.93225 18.4574Z" fill="#010100"/>
<path fill-rule="evenodd" clip-rule="evenodd" d="M29.0634 16.5305C29.0634 16.8611 29.2501 17.1674 29.6197 17.1997C30.1007 17.2413 31.9712 17.2413 32.4522 17.1997C32.7452 17.1741 32.8621 17.0277 32.9696 16.7845C33.0609 16.5789 32.987 16.3491 32.8486 16.1825C32.6981 15.9997 32.4495 15.9433 32.2077 15.9433C31.6635 15.9433 29.9771 15.9003 29.5565 15.9849C29.3791 16.0199 29.2407 16.1234 29.1547 16.2765C29.1252 16.3303 29.062 16.4687 29.062 16.5305H29.0634Z" fill="#010100"/>
<path fill-rule="evenodd" clip-rule="evenodd" d="M0 16.2644C0 16.5211 0.0886858 16.7549 0.32115 16.8758C0.345337 16.8879 0.489117 16.9564 0.506585 16.9564H3.43994C3.49369 16.9564 3.70196 16.8369 3.77452 16.7576C3.98818 16.5278 3.98415 16.2967 3.85381 16.036C3.79603 15.9204 3.67509 15.8102 3.56625 15.7632C3.42247 15.7014 3.25047 15.6772 3.09326 15.6772C2.6673 15.6772 0.830422 15.6436 0.541521 15.7108C0.20559 15.7901 0.00134504 16.0897 0.00134504 16.2631L0 16.2644Z" fill="#010100"/>
<path fill-rule="evenodd" clip-rule="evenodd" d="M15.9984 0.853267C15.9984 1.41226 15.9702 2.89976 16.0212 3.36335C16.0427 3.56087 16.1569 3.72078 16.3222 3.80812C16.5412 3.92502 16.7751 3.93174 16.982 3.78393C17.021 3.75706 17.0492 3.73556 17.0855 3.70062C17.1486 3.63881 17.201 3.55819 17.2239 3.46547C17.2494 3.36335 17.2789 3.26257 17.2789 3.14701V0.720239C17.2789 0.595273 17.2494 0.525399 17.2306 0.421932C17.2131 0.325184 17.2346 0.338621 17.111 0.194842C16.9927 0.0550944 16.9215 0.0120935 16.8328 0H16.5318C16.3773 0.00671863 16.2617 0.0524068 16.1435 0.198873L16.079 0.294276C15.9984 0.419243 15.9984 0.679926 15.9984 0.853267Z" fill="#010100"/>
<path fill-rule="evenodd" clip-rule="evenodd" d="M27.2494 23.143C27.2494 23.663 27.5692 23.7127 28.0785 24.0204C28.1282 24.05 28.1174 24.0473 28.1779 24.0809L28.6213 24.3308C28.6281 24.3348 28.6482 24.3469 28.6549 24.351C28.7073 24.3832 28.6912 24.3751 28.7557 24.4101L29.8535 25.0457C30.0242 25.1451 30.168 25.1612 30.3171 25.1169C30.5039 25.0618 30.6235 25.0148 30.739 24.7917C30.8465 24.5821 30.8573 24.4531 30.7579 24.2475L30.6786 24.1131C30.6598 24.0903 30.6557 24.0862 30.6423 24.0701C30.5496 23.964 29.9933 23.6616 29.832 23.5743C29.7702 23.5407 29.7823 23.5447 29.7326 23.5138L29.3429 23.2908C29.269 23.2424 29.2394 23.2222 29.1602 23.1806C29.1534 23.1765 29.1319 23.1658 29.1252 23.1618C29.1199 23.1591 29.1131 23.155 29.1091 23.1524C29.1037 23.1497 29.097 23.1456 29.093 23.1416L28.4131 22.756C28.0462 22.5302 28.0865 22.5571 27.7049 22.5571C27.631 22.5571 27.2521 22.768 27.2521 23.1443L27.2494 23.143Z" fill="#010100"/>
<path fill-rule="evenodd" clip-rule="evenodd" d="M27.3569 9.94487C27.3569 10.3547 27.7117 10.7027 28.2344 10.5563C28.3473 10.5254 28.5784 10.356 28.7302 10.2795C28.7544 10.2674 28.7598 10.266 28.784 10.2539L29.4411 9.87096C29.4411 9.87096 29.4531 9.86425 29.4585 9.86156L30.0189 9.54175C30.0189 9.54175 30.0309 9.53503 30.0363 9.53234L30.5563 9.22598C30.5953 9.20044 30.6518 9.17223 30.6894 9.14535C30.7243 9.12116 30.6934 9.14669 30.7337 9.11041C30.8278 9.0271 30.8815 8.92364 30.9084 8.80539C30.9501 8.61458 30.9568 8.74895 30.9568 8.64011L30.8587 8.33777C30.6477 7.99915 30.4717 8.02737 30.1828 8.02737C30.0645 8.02737 29.7326 8.24237 29.5983 8.32299L28.0946 9.19238C28.0248 9.23269 27.975 9.25285 27.9038 9.29451C27.8595 9.32004 27.8662 9.31869 27.8219 9.34556L27.7224 9.40603C27.6512 9.45306 27.6069 9.46919 27.5491 9.52563C27.5115 9.56325 27.4523 9.64522 27.4295 9.69897C27.412 9.73928 27.3569 9.90724 27.3569 9.94621V9.94487Z" fill="#010100"/>
<path fill-rule="evenodd" clip-rule="evenodd" d="M2.18616 8.39831C2.18616 8.60658 2.29231 8.81083 2.4549 8.92908C2.45893 8.93177 2.46565 8.93714 2.47103 8.93983C2.47506 8.94251 2.48178 8.94789 2.48715 8.95058L3.92225 9.78234C3.92225 9.78234 3.93434 9.78906 3.93972 9.79175L4.87495 10.3225C5.12757 10.426 5.34929 10.422 5.56966 10.211C5.77928 10.0094 5.82765 9.64931 5.65969 9.40475C5.62609 9.35504 5.64759 9.38594 5.62609 9.35907C5.62206 9.35504 5.61803 9.34832 5.614 9.34429C5.54144 9.26232 5.31032 9.11451 5.22298 9.06882L5.06711 8.98551C5.06711 8.98551 5.05501 8.97879 5.05098 8.97611L4.95154 8.91564C4.90586 8.88742 4.94482 8.91027 4.90183 8.88608C4.88973 8.87936 4.85748 8.86324 4.84942 8.85786L4.57799 8.70333C4.57799 8.70333 4.56589 8.69661 4.56186 8.69258L4.37509 8.58509C4.33343 8.56359 4.31596 8.55418 4.27162 8.52865L3.24233 7.93203C3.00046 7.7896 2.8513 7.72107 2.57315 7.85275C2.4025 7.93338 2.34203 7.98309 2.26141 8.15509C2.22781 8.22631 2.1875 8.28274 2.1875 8.40099L2.18616 8.39831Z" fill="#010100"/>
<path fill-rule="evenodd" clip-rule="evenodd" d="M8.05289 2.55978C8.05289 2.88093 8.02602 2.76671 8.13754 2.98171C8.16173 3.02739 8.14695 2.99918 8.17786 3.04889L8.86047 4.23272C8.86853 4.24615 8.87928 4.26228 8.89137 4.28243L9.34824 5.07926C9.44768 5.25798 9.58608 5.4985 9.79839 5.563C9.93545 5.60466 9.98517 5.58451 10.1061 5.57779C10.2553 5.56838 10.3426 5.51598 10.4407 5.43132C10.4447 5.42729 10.4501 5.42191 10.4541 5.41922C10.5683 5.31173 10.6651 5.06851 10.6651 4.98923C10.6651 4.89652 10.6302 4.83605 10.6006 4.7608C10.5213 4.55655 10.4904 4.53506 10.4017 4.37246L9.83064 3.39692C9.83064 3.39692 9.82392 3.38482 9.82123 3.37945L9.42618 2.68206C9.32406 2.51275 9.25956 2.36762 9.13325 2.22788L9.00156 2.12038C8.93438 2.0841 8.95587 2.10023 8.886 2.07604C8.7476 2.02632 8.929 2.03035 8.58501 2.03035L8.31357 2.158C8.27729 2.18353 8.2652 2.18891 8.23698 2.21444L8.07977 2.45631C8.05692 2.5114 8.05289 2.46841 8.05289 2.56247V2.55978Z" fill="#010100"/>
<path fill-rule="evenodd" clip-rule="evenodd" d="M2.0531 24.2637L2.11491 24.5216C2.13373 24.5821 2.12566 24.5593 2.17135 24.6251C2.37291 24.9221 2.62687 24.9839 2.94399 24.8603L3.76501 24.4021C3.76501 24.4021 3.7771 24.3953 3.78248 24.3927L3.81607 24.3725C3.87385 24.3376 3.84698 24.3497 3.91819 24.3147L4.69621 23.8659C4.76743 23.8229 4.81311 23.796 4.88433 23.7611C4.95555 23.7262 4.92867 23.7369 4.98511 23.702L5.26998 23.534C5.35329 23.4883 5.38823 23.4615 5.45542 23.3996C5.7161 23.1645 5.70535 22.756 5.46079 22.5101C5.32239 22.3703 5.03483 22.2575 4.8279 22.3462L2.72228 23.5461C2.70481 23.5569 2.69675 23.5609 2.67122 23.5757L2.6215 23.6052C2.31244 23.7947 2.19016 23.7934 2.09341 24.1427C2.07326 24.2139 2.0531 24.2045 2.0531 24.2637Z" fill="#010100"/>
<path fill-rule="evenodd" clip-rule="evenodd" d="M22.5839 4.98652C22.5839 5.26064 22.557 5.19211 22.6686 5.40845C22.8002 5.6651 23.1939 5.85053 23.5473 5.63016C23.6683 5.55492 23.675 5.53879 23.7462 5.42861L24.8924 3.45467C24.9045 3.43452 24.9153 3.41839 24.9233 3.40495L25.1195 3.04081C25.1195 3.04081 25.1235 3.02737 25.1262 3.02065C25.1289 3.01393 25.1316 3.00721 25.1329 3.00184C25.1356 2.99646 25.1383 2.9884 25.141 2.98303C25.1665 2.9239 25.141 2.99378 25.1665 2.92793C25.2633 2.68069 25.0792 2.36491 24.8333 2.23054L24.7997 2.21038C24.6815 2.14589 24.4691 2.13245 24.3455 2.18619L24.1413 2.30176C23.9841 2.42807 23.5299 3.29746 23.3727 3.55948L22.5852 4.98383L22.5839 4.98652Z" fill="#010100"/>
<path fill-rule="evenodd" clip-rule="evenodd" d="M14.3711 24.1723C14.4692 24.0702 14.5055 23.9089 14.742 23.8686C15.0282 23.8202 15.2553 23.8753 15.4085 24.0527C15.4891 24.1454 15.5321 24.2462 15.5684 24.3671C15.61 24.5109 15.5845 27.3435 15.5845 27.6418H17.6713V17.2857H15.5845V22.2655L15.5254 22.2964C15.5187 22.3005 15.5092 22.3085 15.5025 22.3126C15.4958 22.3166 15.4864 22.3247 15.4783 22.3314C15.4743 22.3341 15.4501 22.3488 15.4179 22.3972C15.219 22.7022 14.8764 22.7412 14.66 22.6149C14.2986 22.4039 14.3227 22.1997 14.3227 21.7294V18.0771C14.3227 17.068 14.3926 17.244 13.9452 17.2454C13.5555 17.2454 13.1134 17.2749 12.7613 17.2078C12.1889 17.0962 12.3461 17.1768 11.9282 16.9242L11.7724 16.8423C11.4848 16.6958 11.1663 16.3169 11.0118 16.0548L10.9728 15.989C10.9728 15.989 10.9661 15.9769 10.9634 15.9715C10.7847 15.6074 10.7256 15.4112 10.7189 15.0121C10.7162 14.8549 10.6974 14.5539 10.7444 14.4209C10.903 13.9761 10.8089 14.0917 11.1139 13.5985C11.2295 13.4131 11.3262 13.3284 11.4808 13.1887C11.4875 13.1819 11.517 13.1578 11.5251 13.151C11.5466 13.1336 11.5574 13.1269 11.5694 13.1161C11.5869 13.1013 11.5936 13.096 11.6111 13.0812C11.6151 13.0771 11.6205 13.0718 11.6245 13.0691C11.8409 12.8635 12.0129 12.8071 12.248 12.7237C12.5369 12.6203 12.4751 12.6673 12.5813 12.631C13.0368 12.4711 13.6334 12.5907 14.0755 12.7466C14.316 12.8312 14.3725 12.928 14.5324 12.9898C14.7648 13.0839 14.914 13.28 15.0712 13.4883C15.1545 13.5985 15.2002 13.6751 15.2754 13.7893L15.4246 14.136C15.688 15.3978 15.4864 15.0121 15.5684 15.9997C15.864 16.032 17.4617 16.0401 17.721 15.9917C17.7573 15.5026 17.6391 14.476 17.85 14.2327C17.846 14.1723 17.9105 14.0339 17.9401 13.9694L18.4507 13.225C18.8578 12.8541 19.2972 12.6189 19.8455 12.5719C20.524 12.5128 21.0723 12.627 21.6071 13.0073C21.6393 13.0301 21.642 13.0315 21.6675 13.0516L22.0142 13.3943C22.0519 13.4413 22.0613 13.4695 22.1002 13.5219C22.3878 13.8982 22.3528 13.9519 22.4872 14.3053C22.5127 14.3725 22.5127 14.394 22.5208 14.48C22.5611 14.906 22.5746 15.1209 22.4577 15.4972C22.3193 15.9393 22.2655 16.1381 21.8839 16.5265C21.6971 16.7159 21.6178 16.7939 21.3518 16.9296C20.825 17.201 20.4703 17.2467 19.836 17.2467L18.972 17.2682C18.8645 17.0841 18.929 22.1164 18.929 22.4792C18.929 23.0852 18.8833 27.5007 18.9492 27.6781C19.0083 27.752 20.7538 27.7063 20.7914 27.7023C20.821 27.3824 20.8479 27.1822 20.8815 26.8812C20.9285 26.4553 21.1018 26.032 21.2053 25.6584C21.2792 25.391 21.5023 24.9893 21.6272 24.7461C21.6528 24.6963 21.6662 24.6614 21.7011 24.6077L22.2453 23.8431C22.3407 23.71 22.545 23.4789 22.7103 23.4305C23.1403 23.3042 23.2531 23.5609 23.4104 23.5703L23.972 22.9858C23.972 22.9858 23.9814 22.9764 23.9855 22.9723L24.1749 22.7694C24.1118 22.58 23.8954 22.4859 23.9465 22.1621C23.9868 21.9054 24.2757 21.6004 24.4128 21.3733L24.6399 20.9836C24.6708 20.9339 24.6869 20.9151 24.7218 20.8546C24.8468 20.6437 25.0322 20.3454 25.1196 20.1142C25.1263 20.0954 25.1397 20.0672 25.1438 20.0551C25.2351 19.8213 25.3037 19.7541 25.3373 19.6184C25.3682 19.5001 25.3588 19.5472 25.3856 19.4733L25.4891 19.1508C25.5187 19.0245 25.5429 18.964 25.5751 18.8323C25.6047 18.7141 25.6436 18.6052 25.6799 18.5139C25.7243 18.405 25.7162 18.2975 25.7404 18.1739C25.9057 17.3421 26.0145 15.8546 25.8371 15.09C25.8102 14.9758 25.7995 14.8603 25.7888 14.7151C25.7726 14.4961 25.6557 14.1158 25.645 14.0218C25.6275 13.878 25.5926 13.8202 25.5643 13.6993L25.2271 12.7936C25.137 12.5302 25.1182 12.5396 25.0443 12.3569C24.9395 12.1002 24.9556 12.1715 24.8307 11.9323C24.6829 11.6501 24.3778 11.1623 24.1924 10.9178L23.8417 10.4421C23.7732 10.3655 23.7167 10.2903 23.6428 10.215C23.577 10.1465 23.5084 10.0914 23.4466 10.0121C23.3405 9.8737 22.721 9.29186 22.6014 9.20318C22.3488 9.01774 22.1903 8.86187 21.896 8.65762L20.864 8.03548C20.7793 7.98979 20.8156 8.00457 20.7175 7.96561L20.301 7.76942C20.2069 7.72239 20.1357 7.69014 20.0148 7.65252C19.9032 7.61758 19.8119 7.57996 19.7057 7.53696C19.1548 7.31524 17.9253 7.01156 17.33 7.03306C16.8973 7.04784 16.208 6.96185 15.864 7.14459C15.7565 7.20103 15.778 7.17147 15.696 7.19834C15.6907 7.19968 15.6826 7.20237 15.6772 7.20506L15.3561 7.40393C15.2378 7.45768 15.1424 7.49933 15.0215 7.55711L14.6385 7.75599C14.4611 7.88767 14.1051 8.09595 14.0056 8.18867C13.9546 8.2357 13.9371 8.25182 13.8726 8.29213C13.7611 8.36066 13.6885 8.42247 13.5958 8.49638C13.5071 8.56625 13.3969 8.62806 13.3163 8.69794C12.8393 9.11449 12.1983 9.75948 11.8221 10.2688C11.5063 10.6974 11.04 11.3881 10.8196 11.8853C10.7216 12.1043 10.7269 12.0277 10.6503 12.2817L10.5818 12.4254C10.5791 12.4335 10.5778 12.4402 10.5751 12.4483C10.5576 12.5114 10.5751 12.4993 10.5482 12.5491C10.5455 12.5531 10.5415 12.5598 10.5388 12.5638L10.4568 12.6955C10.4206 12.7788 10.4286 12.7963 10.3991 12.8823L9.89516 14.746C9.86963 14.8858 9.86023 15.004 9.84545 15.1438C9.82663 15.3239 9.79438 15.3427 9.79035 15.5684C9.78498 15.8896 9.7796 16.208 9.78363 16.5292C9.7917 17.4039 9.88441 17.4993 9.93816 18.2895C9.94488 18.3902 9.96235 18.3781 9.99325 18.4574C9.99594 18.4641 9.99863 18.4709 10.0013 18.4776L10.0913 18.8216C10.1021 18.9129 10.0954 18.9559 10.1263 19.0191L10.5187 20.0323C10.5818 20.1707 10.6033 20.2419 10.6517 20.3857L10.9849 21.0078C11.0454 21.1072 11.0844 21.2121 11.1448 21.3021L11.8597 22.3421C12.0948 22.6942 12.326 22.8783 12.5961 23.182C12.8178 23.4319 12.8218 23.4077 13.0704 23.6429C13.5676 24.1132 13.9626 24.6735 14.2663 25.2889C14.3523 25.176 14.3039 24.6439 14.3093 24.3913C14.312 24.2408 14.3147 24.261 14.3725 24.1696L14.3711 24.1723Z" fill="#FED944"/>
<path fill-rule="evenodd" clip-rule="evenodd" d="M6.93225 18.4574L7.25206 19.5647C7.40927 19.5714 7.65921 19.4464 7.91452 19.7084C8.03276 19.8294 8.28404 20.4166 8.4211 20.6705L8.80675 21.3222C8.93172 21.501 9.02712 21.6595 9.16015 21.8208C9.23943 21.9162 9.27033 21.9484 9.34827 22.0586C9.81589 22.7291 10.8626 23.581 11.1515 24.0151L11.4902 24.5351C11.556 24.6426 11.599 24.691 11.6541 24.7958C11.8006 25.0793 11.9833 25.3561 12.0532 25.649L12.2507 26.2806C12.3421 26.5655 12.3797 26.8544 12.412 26.939C12.4603 27.0653 12.4482 27.5128 12.4792 27.7076H14.2999C14.3456 27.4953 14.359 24.6748 14.3201 24.394C14.3281 24.2919 14.351 24.2583 14.3738 24.1723C14.316 24.2637 14.3133 24.2449 14.3106 24.394C14.3053 24.6466 14.3536 25.1787 14.2676 25.2916C13.964 24.6762 13.5676 24.1172 13.0717 23.6455C12.8245 23.4104 12.8191 23.4346 12.5974 23.1847C12.3287 22.881 12.0975 22.6969 11.861 22.3448L11.1462 21.3048C11.0857 21.2147 11.0467 21.1086 10.9863 21.0105L10.653 20.3884C10.6047 20.2446 10.5832 20.172 10.52 20.035L10.1276 19.0218C10.0967 18.9586 10.1034 18.9156 10.0927 18.8243L10.0027 18.4803C9.99998 18.4735 9.99729 18.4668 9.9946 18.4601C9.9637 18.3808 9.94623 18.3929 9.93951 18.2921C9.88576 17.502 9.79304 17.4066 9.78498 16.5319C9.78229 16.2107 9.78632 15.8923 9.7917 15.5711C9.79573 15.3454 9.82798 15.3265 9.84679 15.1465C9.86157 15.0067 9.87098 14.8885 9.89651 14.7487L10.4004 12.885C10.43 12.799 10.4219 12.7815 10.4582 12.6982L10.5402 12.5665C10.5402 12.5665 10.5469 12.5571 10.5496 12.5517C10.5751 12.502 10.5576 12.5128 10.5764 12.451C10.5791 12.4429 10.5805 12.4362 10.5832 12.4281L10.6517 12.2843C10.7283 12.0304 10.7229 12.107 10.821 11.8879C11.0414 11.3921 11.5076 10.7001 11.8234 10.2714C12.1983 9.76217 12.8406 9.11719 13.3176 8.70063C13.3983 8.63076 13.5098 8.56895 13.5971 8.49907C13.6912 8.42517 13.7638 8.36336 13.8739 8.29483C13.9398 8.25452 13.9559 8.23973 14.007 8.19136C14.1064 8.09864 14.4625 7.89036 14.6399 7.75868L15.0228 7.55981C15.1451 7.50337 15.2405 7.46037 15.3574 7.40662L15.6786 7.20775C15.6786 7.20775 15.6907 7.20238 15.6974 7.20103C15.7793 7.17281 15.7578 7.20372 15.8653 7.14728C16.2107 6.96454 16.8987 7.05054 17.3313 7.03576C17.1499 6.96454 16.2335 7.01157 15.9702 7.01963C15.4407 7.03575 14.9126 7.18222 14.4759 7.25209C14.2314 7.29106 14.0338 7.36497 13.7664 7.42947L13.1524 7.66327C12.9441 7.72643 12.5436 7.94815 12.3488 8.05564L10.7807 9.07553L9.24883 10.6343C9.05534 10.8788 8.84169 11.247 8.68447 11.4593L8.20342 12.3636C8.04351 12.6861 8.12414 12.5544 8.05561 12.7573C8.04217 12.7977 8.03276 12.8017 8.00589 12.8635C7.85136 13.2155 7.58665 14.05 7.52483 14.4316C7.50333 14.5673 7.46974 14.5996 7.45362 14.6977C7.43615 14.8025 7.44421 14.9167 7.42674 15.0255C7.33403 15.5939 7.31387 16.7227 7.37165 17.33C7.38643 17.4819 7.57052 17.8608 7.33537 18.1873C7.2225 18.3432 7.10828 18.3808 6.93225 18.4588V18.4574Z" fill="#FFCD00"/>
<path fill-rule="evenodd" clip-rule="evenodd" d="M20.7605 28.9385C20.571 28.9936 15.5643 28.9533 14.9045 28.9559C14.9045 29.3187 14.8575 31.2483 14.9314 31.4096C15.1289 31.4526 18.7718 31.4244 19.3052 31.4244C19.668 31.4244 20.4299 31.466 20.7457 31.4096C20.7457 31.0105 20.696 29.1736 20.7618 28.9398L20.7605 28.9385Z" fill="#C5C4C9"/>
<path fill-rule="evenodd" clip-rule="evenodd" d="M14.918 32.7614C14.8723 32.9871 14.9045 33.8175 14.9072 34.1011C14.9113 34.4007 14.9301 34.4599 15.0026 34.6681C15.2311 35.3239 15.266 35.168 16.5304 35.168H19.2233C19.574 35.168 19.9664 35.2244 20.2821 35.0524C20.399 34.9879 20.4461 34.9637 20.5643 34.8294C20.6087 34.7797 20.5939 34.7971 20.6261 34.738C20.8102 34.4048 20.7444 33.2048 20.743 32.7533C20.4783 32.7076 15.0443 32.7251 14.9166 32.7614H14.918Z" fill="#ACABB1"/>
<path fill-rule="evenodd" clip-rule="evenodd" d="M20.7605 28.9385C20.6947 29.1737 20.7444 31.0092 20.7444 31.4083C20.4286 31.4647 19.6667 31.4231 19.3039 31.4231C18.7718 31.4231 15.1276 31.4526 14.9301 31.4083C14.8575 31.247 14.9032 29.3174 14.9032 28.9546C15.563 28.9519 20.5697 28.9923 20.7592 28.9372L20.7605 28.9385ZM20.7605 28.9385C20.7242 28.8901 20.8573 28.9022 20.6906 28.8955L12.4563 28.9143L12.467 31.4714C13.0233 31.5292 20.7444 31.4741 20.7699 31.462L20.8022 29.2207C20.8022 29.1777 20.8076 29.0971 20.8049 29.0581C20.7955 28.9197 20.825 28.9546 20.7605 28.9372V28.9385Z" fill="#A9A8AE"/>
<path fill-rule="evenodd" clip-rule="evenodd" d="M14.9181 32.7614C15.0444 32.7251 20.4784 32.7076 20.7445 32.7533C20.7458 33.2048 20.8117 34.4047 20.6276 34.738C20.5953 34.7971 20.6088 34.7783 20.5658 34.8294C20.4475 34.9651 20.4005 34.9893 20.2836 35.0524C19.9678 35.2258 19.5754 35.168 19.2247 35.168H16.5319C15.2688 35.168 15.2325 35.3239 15.0041 34.6681C14.9315 34.4598 14.9114 34.3994 14.9087 34.1011C14.906 33.8175 14.8724 32.9871 14.9194 32.7614H14.9181ZM12.4765 34.3953C12.5289 34.6883 12.5585 34.6923 12.713 34.8764L12.7359 34.906C13.0852 35.3722 13.8162 35.2231 14.3712 35.2231L19.8106 35.2298C20.0578 35.2298 20.2204 35.1855 20.3709 35.0874C20.9151 34.734 20.8036 34.1803 20.8036 33.4883C20.8036 32.6243 20.8815 32.6512 20.5846 32.6566C20.4771 32.6579 20.3709 32.6579 20.2634 32.6579L13.4642 32.6646C12.3516 32.6646 12.4685 32.5867 12.4712 33.0355C12.4725 33.3513 12.4295 34.136 12.4765 34.3953Z" fill="#89888E"/>
<path fill-rule="evenodd" clip-rule="evenodd" d="M14.0956 38.1806L14.8669 38.886C14.926 38.9223 14.8857 38.9021 14.9421 38.9277C15.1088 38.8067 15.1383 38.6227 15.4648 38.5985C15.6503 38.585 15.9351 38.7194 16.177 38.7503C16.6675 38.8135 17.1378 38.7799 17.5758 38.5931L17.6672 38.5461C17.4791 38.495 17.1364 38.0301 17.0518 37.8124C17.0182 37.7277 17.0437 37.7842 17.0195 37.7425L16.9765 37.6794C16.8704 37.5141 16.5452 36.689 16.6702 36.474C16.7588 36.4377 18.9075 36.4364 19.0942 36.4673C19.1278 36.7213 18.9532 37.1849 18.8228 37.4321C18.7731 37.5248 18.6831 37.6323 18.6629 37.7479L18.6992 37.7183C18.6992 37.7183 18.7113 37.7089 18.7153 37.7035C18.9209 37.5047 19.2165 36.7038 19.1399 36.4015C18.7314 36.38 18.2773 36.3974 17.8634 36.3974L15.3305 36.4042C15.1692 36.4042 14.1843 36.3665 14.1171 36.4351C14.0486 36.5049 14.1668 36.9511 14.2044 37.0465L14.3321 37.3394C14.5551 37.7842 14.191 38.0529 14.0929 38.1819L14.0956 38.1806Z" fill="#55545A"/>
<path fill-rule="evenodd" clip-rule="evenodd" d="M17.6673 38.5461C17.8756 38.5434 18.6079 37.9509 18.663 37.748C18.6845 37.6324 18.7732 37.5262 18.8229 37.4322C18.9546 37.1836 19.1279 36.7213 19.0943 36.4674C18.9076 36.4365 16.7589 36.4392 16.6703 36.4741C16.5453 36.6891 16.8705 37.5141 16.9766 37.6794L17.0196 37.7426C17.0438 37.7842 17.0196 37.7278 17.0519 37.8125C17.1365 38.0301 17.4792 38.4937 17.6673 38.5461Z" fill="#77757E"/>
<path fill-rule="evenodd" clip-rule="evenodd" d="M15.4784 22.3314C15.4864 22.3246 15.4958 22.3179 15.5025 22.3125C15.5079 22.3085 15.5187 22.3004 15.5254 22.2964L15.5845 22.2655V17.2857H17.6713V27.6418H15.5859C15.5859 27.3435 15.6127 24.5109 15.5697 24.3671C15.5348 24.2462 15.4905 24.1454 15.4098 24.0527C15.2566 23.8753 15.0296 23.8202 14.7433 23.8686C14.5055 23.9089 14.4706 24.0701 14.3725 24.1723C14.3496 24.2596 14.3268 24.2919 14.3187 24.394L14.402 24.3752L14.4424 24.23C14.4464 24.2233 14.4598 24.2059 14.4639 24.1991L14.4988 24.1306C14.6345 23.874 15.0376 23.835 15.2204 24.0043L15.3077 24.0688C15.4125 24.1333 15.4757 24.2327 15.4931 24.3725C15.5402 24.7662 15.4582 26.8987 15.5052 27.6942C15.7968 27.7855 16.2779 27.7318 16.6125 27.7318C18.0247 27.7318 17.7573 27.8796 17.7573 27.0653C17.7573 25.5214 17.7909 17.3193 17.7318 17.2534C17.627 17.1916 15.6356 17.1997 15.5227 17.2561C15.4542 17.4227 15.4985 19.4155 15.4985 19.7863C15.4985 20.5778 15.5509 21.5668 15.4784 22.334V22.3314Z" fill="#BCA132"/>
<path fill-rule="evenodd" clip-rule="evenodd" d="M17.85 14.2313C17.639 14.4746 17.7573 15.5012 17.721 15.9903C17.4617 16.0373 15.864 16.0306 15.5684 15.9983C15.4864 15.0107 15.6866 15.3964 15.4246 14.1346L15.2754 13.7879C15.2002 13.6737 15.1545 13.5971 15.0712 13.4869C14.914 13.2773 14.7648 13.0825 14.5323 12.9884C14.5646 13.0744 14.8105 13.2692 14.9382 13.405C14.9422 13.409 14.9476 13.4144 14.9502 13.4184C15.0846 13.5716 15.3104 13.968 15.3735 14.1642L15.4676 14.5552C15.4824 14.7111 15.477 14.9059 15.477 15.0645C15.477 15.2889 15.4421 15.8949 15.5052 16.0508C15.6839 16.1368 17.3784 16.1005 17.717 16.087C17.8419 15.9097 17.7546 15.0671 17.7774 14.6896C17.7895 14.4974 17.8715 14.4047 17.85 14.23V14.2313Z" fill="#5B4E18"/>
<path fill-rule="evenodd" clip-rule="evenodd" d="M21.0803 14.1427C21.1206 14.2932 21.3786 14.5566 21.3329 15.0121C21.3195 15.1505 21.2483 15.3292 21.1918 15.4327L20.9406 15.7417C20.8707 15.7995 20.8384 15.8156 20.7753 15.8465C20.7 15.8842 20.7404 15.8653 20.692 15.8922L20.6369 15.9204C20.2969 16.0642 19.3348 16.0199 18.9532 16.0024C18.929 15.7095 18.9438 15.3386 18.9465 15.0376C18.9465 14.867 18.9854 14.7756 19.0083 14.6224C19.0392 14.4168 19.0728 14.3765 19.1924 14.2341L19.2676 14.1266C19.3106 14.0674 19.3456 14.0473 19.3939 14.0083C19.8159 13.6751 20.1921 13.7664 20.5885 13.8336C20.5428 13.7382 20.5616 13.7436 20.4259 13.7302C19.8898 13.6764 19.406 13.7718 19.0889 14.2408C18.9263 14.4827 18.9008 14.7084 18.9008 15.0914C18.9008 15.3735 18.8538 15.8586 18.9478 16.0857C19.2582 16.1072 20.2687 16.1247 20.5831 16.0172C20.6584 15.9917 20.5952 16.0051 20.6745 15.9755C21.3692 15.7122 21.5923 14.7366 21.1851 14.2233C21.1596 14.1911 21.1972 14.2233 21.1421 14.1803L21.0803 14.1427Z" fill="#5C5018"/>
<path fill-rule="evenodd" clip-rule="evenodd" d="M12.2977 15.7512C12.3018 15.7579 12.3085 15.7606 12.3112 15.7727C12.3139 15.7847 12.3219 15.7888 12.3246 15.7928C12.5006 16.0051 12.9064 16.0562 13.1698 16.0562H14.1857C14.4275 16.0454 14.3469 15.8264 14.3469 15.2244L14.3227 14.6023C14.3039 14.5176 14.2851 14.5096 14.2193 14.4639C14.2421 14.6224 14.2945 14.6506 14.3012 14.824L14.2918 16.0011C13.9183 16.0011 13.5434 16.0011 13.1698 16.0011C12.5262 16.0011 12.553 15.8089 12.2964 15.7525L12.2977 15.7512Z" fill="#857223"/>
</svg>
